<mxfile host="app.diagrams.net" modified="2023-06-09T13:43:06.151Z" agent="Mozilla/5.0 (Windows NT 10.0; Win64; x64) AppleWebKit/537.36 (KHTML, like Gecko) Chrome/114.0.0.0 Safari/537.36" etag="KWcX3ihDbXeNgopQVCGA" version="21.3.8" type="device">
  <diagram id="C5RBs43oDa-KdzZeNtuy" name="Page-1">
    <mxGraphModel dx="2111" dy="882" grid="0" gridSize="10" guides="1" tooltips="1" connect="1" arrows="1" fold="1" page="1" pageScale="1" pageWidth="827" pageHeight="1169" math="0" shadow="0">
      <root>
        <mxCell id="WIyWlLk6GJQsqaUBKTNV-0" />
        <mxCell id="WIyWlLk6GJQsqaUBKTNV-1" parent="WIyWlLk6GJQsqaUBKTNV-0" />
        <mxCell id="aSDHO9caTJVkEjK9U5SC-7" style="edgeStyle=orthogonalEdgeStyle;rounded=0;orthogonalLoop=1;jettySize=auto;html=1;entryX=0.5;entryY=0;entryDx=0;entryDy=0;exitX=0;exitY=0.5;exitDx=0;exitDy=0;" edge="1" parent="WIyWlLk6GJQsqaUBKTNV-1" source="aSDHO9caTJVkEjK9U5SC-0" target="aSDHO9caTJVkEjK9U5SC-1">
          <mxGeometry relative="1" as="geometry" />
        </mxCell>
        <mxCell id="aSDHO9caTJVkEjK9U5SC-8" style="edgeStyle=orthogonalEdgeStyle;rounded=0;orthogonalLoop=1;jettySize=auto;html=1;" edge="1" parent="WIyWlLk6GJQsqaUBKTNV-1" source="aSDHO9caTJVkEjK9U5SC-0" target="aSDHO9caTJVkEjK9U5SC-2">
          <mxGeometry relative="1" as="geometry" />
        </mxCell>
        <mxCell id="aSDHO9caTJVkEjK9U5SC-9" style="edgeStyle=orthogonalEdgeStyle;rounded=0;orthogonalLoop=1;jettySize=auto;html=1;entryX=0.5;entryY=0;entryDx=0;entryDy=0;" edge="1" parent="WIyWlLk6GJQsqaUBKTNV-1" source="aSDHO9caTJVkEjK9U5SC-0" target="aSDHO9caTJVkEjK9U5SC-3">
          <mxGeometry relative="1" as="geometry" />
        </mxCell>
        <mxCell id="aSDHO9caTJVkEjK9U5SC-10" style="edgeStyle=orthogonalEdgeStyle;rounded=0;orthogonalLoop=1;jettySize=auto;html=1;entryX=0.5;entryY=0;entryDx=0;entryDy=0;" edge="1" parent="WIyWlLk6GJQsqaUBKTNV-1" source="aSDHO9caTJVkEjK9U5SC-0" target="aSDHO9caTJVkEjK9U5SC-5">
          <mxGeometry relative="1" as="geometry" />
        </mxCell>
        <mxCell id="aSDHO9caTJVkEjK9U5SC-11" style="edgeStyle=orthogonalEdgeStyle;rounded=0;orthogonalLoop=1;jettySize=auto;html=1;entryX=0.612;entryY=0.008;entryDx=0;entryDy=0;entryPerimeter=0;" edge="1" parent="WIyWlLk6GJQsqaUBKTNV-1" source="aSDHO9caTJVkEjK9U5SC-0" target="aSDHO9caTJVkEjK9U5SC-6">
          <mxGeometry relative="1" as="geometry" />
        </mxCell>
        <mxCell id="aSDHO9caTJVkEjK9U5SC-0" value="EERover" style="rounded=0;whiteSpace=wrap;html=1;" vertex="1" parent="WIyWlLk6GJQsqaUBKTNV-1">
          <mxGeometry x="390" y="40" width="110" height="60" as="geometry" />
        </mxCell>
        <mxCell id="aSDHO9caTJVkEjK9U5SC-17" style="edgeStyle=orthogonalEdgeStyle;rounded=0;orthogonalLoop=1;jettySize=auto;html=1;" edge="1" parent="WIyWlLk6GJQsqaUBKTNV-1" source="aSDHO9caTJVkEjK9U5SC-1" target="aSDHO9caTJVkEjK9U5SC-2">
          <mxGeometry relative="1" as="geometry" />
        </mxCell>
        <mxCell id="aSDHO9caTJVkEjK9U5SC-21" style="edgeStyle=orthogonalEdgeStyle;rounded=0;orthogonalLoop=1;jettySize=auto;html=1;entryX=0.5;entryY=0;entryDx=0;entryDy=0;" edge="1" parent="WIyWlLk6GJQsqaUBKTNV-1" source="aSDHO9caTJVkEjK9U5SC-1" target="aSDHO9caTJVkEjK9U5SC-12">
          <mxGeometry relative="1" as="geometry" />
        </mxCell>
        <mxCell id="aSDHO9caTJVkEjK9U5SC-1" value="General Planning" style="rounded=0;whiteSpace=wrap;html=1;" vertex="1" parent="WIyWlLk6GJQsqaUBKTNV-1">
          <mxGeometry x="30" y="180" width="120" height="60" as="geometry" />
        </mxCell>
        <mxCell id="aSDHO9caTJVkEjK9U5SC-18" style="edgeStyle=orthogonalEdgeStyle;rounded=0;orthogonalLoop=1;jettySize=auto;html=1;entryX=0;entryY=0.5;entryDx=0;entryDy=0;" edge="1" parent="WIyWlLk6GJQsqaUBKTNV-1" source="aSDHO9caTJVkEjK9U5SC-2" target="aSDHO9caTJVkEjK9U5SC-3">
          <mxGeometry relative="1" as="geometry" />
        </mxCell>
        <mxCell id="aSDHO9caTJVkEjK9U5SC-27" style="edgeStyle=orthogonalEdgeStyle;rounded=0;orthogonalLoop=1;jettySize=auto;html=1;entryX=0.5;entryY=0;entryDx=0;entryDy=0;" edge="1" parent="WIyWlLk6GJQsqaUBKTNV-1" source="aSDHO9caTJVkEjK9U5SC-2" target="aSDHO9caTJVkEjK9U5SC-26">
          <mxGeometry relative="1" as="geometry" />
        </mxCell>
        <mxCell id="aSDHO9caTJVkEjK9U5SC-2" value="Design Specifications" style="rounded=0;whiteSpace=wrap;html=1;" vertex="1" parent="WIyWlLk6GJQsqaUBKTNV-1">
          <mxGeometry x="210" y="180" width="120" height="60" as="geometry" />
        </mxCell>
        <mxCell id="aSDHO9caTJVkEjK9U5SC-19" style="edgeStyle=orthogonalEdgeStyle;rounded=0;orthogonalLoop=1;jettySize=auto;html=1;entryX=0;entryY=0.5;entryDx=0;entryDy=0;" edge="1" parent="WIyWlLk6GJQsqaUBKTNV-1" source="aSDHO9caTJVkEjK9U5SC-3" target="aSDHO9caTJVkEjK9U5SC-5">
          <mxGeometry relative="1" as="geometry" />
        </mxCell>
        <mxCell id="aSDHO9caTJVkEjK9U5SC-51" style="edgeStyle=orthogonalEdgeStyle;rounded=0;orthogonalLoop=1;jettySize=auto;html=1;entryX=0.5;entryY=0;entryDx=0;entryDy=0;" edge="1" parent="WIyWlLk6GJQsqaUBKTNV-1" source="aSDHO9caTJVkEjK9U5SC-3" target="aSDHO9caTJVkEjK9U5SC-36">
          <mxGeometry relative="1" as="geometry" />
        </mxCell>
        <mxCell id="aSDHO9caTJVkEjK9U5SC-3" value="Circuit Design&lt;span style=&quot;white-space: pre;&quot;&gt;&#x9;&lt;/span&gt;" style="rounded=0;whiteSpace=wrap;html=1;" vertex="1" parent="WIyWlLk6GJQsqaUBKTNV-1">
          <mxGeometry x="380" y="180" width="120" height="60" as="geometry" />
        </mxCell>
        <mxCell id="aSDHO9caTJVkEjK9U5SC-20" style="edgeStyle=orthogonalEdgeStyle;rounded=0;orthogonalLoop=1;jettySize=auto;html=1;" edge="1" parent="WIyWlLk6GJQsqaUBKTNV-1" source="aSDHO9caTJVkEjK9U5SC-5" target="aSDHO9caTJVkEjK9U5SC-6">
          <mxGeometry relative="1" as="geometry" />
        </mxCell>
        <mxCell id="aSDHO9caTJVkEjK9U5SC-57" style="edgeStyle=orthogonalEdgeStyle;rounded=0;orthogonalLoop=1;jettySize=auto;html=1;entryX=0.5;entryY=0;entryDx=0;entryDy=0;" edge="1" parent="WIyWlLk6GJQsqaUBKTNV-1" source="aSDHO9caTJVkEjK9U5SC-5" target="aSDHO9caTJVkEjK9U5SC-43">
          <mxGeometry relative="1" as="geometry" />
        </mxCell>
        <mxCell id="aSDHO9caTJVkEjK9U5SC-5" value="Software Development" style="rounded=0;whiteSpace=wrap;html=1;" vertex="1" parent="WIyWlLk6GJQsqaUBKTNV-1">
          <mxGeometry x="570" y="180" width="120" height="60" as="geometry" />
        </mxCell>
        <mxCell id="aSDHO9caTJVkEjK9U5SC-62" style="edgeStyle=orthogonalEdgeStyle;rounded=0;orthogonalLoop=1;jettySize=auto;html=1;entryX=0.5;entryY=0;entryDx=0;entryDy=0;" edge="1" parent="WIyWlLk6GJQsqaUBKTNV-1" source="aSDHO9caTJVkEjK9U5SC-6" target="aSDHO9caTJVkEjK9U5SC-50">
          <mxGeometry relative="1" as="geometry" />
        </mxCell>
        <mxCell id="aSDHO9caTJVkEjK9U5SC-6" value="Assembly, Testing and Delivery" style="rounded=0;whiteSpace=wrap;html=1;" vertex="1" parent="WIyWlLk6GJQsqaUBKTNV-1">
          <mxGeometry x="760" y="180" width="120" height="60" as="geometry" />
        </mxCell>
        <mxCell id="aSDHO9caTJVkEjK9U5SC-22" style="edgeStyle=orthogonalEdgeStyle;rounded=0;orthogonalLoop=1;jettySize=auto;html=1;entryX=0.5;entryY=0;entryDx=0;entryDy=0;" edge="1" parent="WIyWlLk6GJQsqaUBKTNV-1" source="aSDHO9caTJVkEjK9U5SC-12" target="aSDHO9caTJVkEjK9U5SC-13">
          <mxGeometry relative="1" as="geometry" />
        </mxCell>
        <mxCell id="aSDHO9caTJVkEjK9U5SC-12" value="Discover and assign different roles to team members based on their strengths" style="rounded=0;whiteSpace=wrap;html=1;" vertex="1" parent="WIyWlLk6GJQsqaUBKTNV-1">
          <mxGeometry x="30" y="300" width="120" height="60" as="geometry" />
        </mxCell>
        <mxCell id="aSDHO9caTJVkEjK9U5SC-23" style="edgeStyle=orthogonalEdgeStyle;rounded=0;orthogonalLoop=1;jettySize=auto;html=1;entryX=0.5;entryY=0;entryDx=0;entryDy=0;" edge="1" parent="WIyWlLk6GJQsqaUBKTNV-1" source="aSDHO9caTJVkEjK9U5SC-13" target="aSDHO9caTJVkEjK9U5SC-14">
          <mxGeometry relative="1" as="geometry" />
        </mxCell>
        <mxCell id="aSDHO9caTJVkEjK9U5SC-13" value="Consider the different methods we can use to achieve our aims" style="rounded=0;whiteSpace=wrap;html=1;" vertex="1" parent="WIyWlLk6GJQsqaUBKTNV-1">
          <mxGeometry x="30" y="430" width="120" height="60" as="geometry" />
        </mxCell>
        <mxCell id="aSDHO9caTJVkEjK9U5SC-24" style="edgeStyle=orthogonalEdgeStyle;rounded=0;orthogonalLoop=1;jettySize=auto;html=1;entryX=0.5;entryY=0;entryDx=0;entryDy=0;" edge="1" parent="WIyWlLk6GJQsqaUBKTNV-1" source="aSDHO9caTJVkEjK9U5SC-14" target="aSDHO9caTJVkEjK9U5SC-15">
          <mxGeometry relative="1" as="geometry" />
        </mxCell>
        <mxCell id="aSDHO9caTJVkEjK9U5SC-14" value="Generate ideas on the project and choose the most appropriate" style="rounded=0;whiteSpace=wrap;html=1;" vertex="1" parent="WIyWlLk6GJQsqaUBKTNV-1">
          <mxGeometry x="30" y="540" width="120" height="60" as="geometry" />
        </mxCell>
        <mxCell id="aSDHO9caTJVkEjK9U5SC-25" style="edgeStyle=orthogonalEdgeStyle;rounded=0;orthogonalLoop=1;jettySize=auto;html=1;entryX=0.5;entryY=0;entryDx=0;entryDy=0;" edge="1" parent="WIyWlLk6GJQsqaUBKTNV-1" source="aSDHO9caTJVkEjK9U5SC-15" target="aSDHO9caTJVkEjK9U5SC-16">
          <mxGeometry relative="1" as="geometry" />
        </mxCell>
        <mxCell id="aSDHO9caTJVkEjK9U5SC-15" value="Confirm the tasks for each of us to complete" style="rounded=0;whiteSpace=wrap;html=1;" vertex="1" parent="WIyWlLk6GJQsqaUBKTNV-1">
          <mxGeometry x="30" y="660" width="120" height="60" as="geometry" />
        </mxCell>
        <mxCell id="aSDHO9caTJVkEjK9U5SC-16" value="Utilise the Gant Chart in order to set specific deadlines for our different tasks" style="rounded=0;whiteSpace=wrap;html=1;" vertex="1" parent="WIyWlLk6GJQsqaUBKTNV-1">
          <mxGeometry x="30" y="780" width="120" height="60" as="geometry" />
        </mxCell>
        <mxCell id="aSDHO9caTJVkEjK9U5SC-29" style="edgeStyle=orthogonalEdgeStyle;rounded=0;orthogonalLoop=1;jettySize=auto;html=1;" edge="1" parent="WIyWlLk6GJQsqaUBKTNV-1" source="aSDHO9caTJVkEjK9U5SC-26" target="aSDHO9caTJVkEjK9U5SC-28">
          <mxGeometry relative="1" as="geometry" />
        </mxCell>
        <mxCell id="aSDHO9caTJVkEjK9U5SC-26" value="Utiliise the budget and consider the different functions of the Rover" style="rounded=0;whiteSpace=wrap;html=1;" vertex="1" parent="WIyWlLk6GJQsqaUBKTNV-1">
          <mxGeometry x="210" y="300" width="120" height="60" as="geometry" />
        </mxCell>
        <mxCell id="aSDHO9caTJVkEjK9U5SC-31" style="edgeStyle=orthogonalEdgeStyle;rounded=0;orthogonalLoop=1;jettySize=auto;html=1;entryX=0.5;entryY=0;entryDx=0;entryDy=0;" edge="1" parent="WIyWlLk6GJQsqaUBKTNV-1" source="aSDHO9caTJVkEjK9U5SC-28" target="aSDHO9caTJVkEjK9U5SC-30">
          <mxGeometry relative="1" as="geometry" />
        </mxCell>
        <mxCell id="aSDHO9caTJVkEjK9U5SC-28" value="Complete Product Design Specification document" style="rounded=0;whiteSpace=wrap;html=1;" vertex="1" parent="WIyWlLk6GJQsqaUBKTNV-1">
          <mxGeometry x="210" y="430" width="120" height="60" as="geometry" />
        </mxCell>
        <mxCell id="aSDHO9caTJVkEjK9U5SC-34" style="edgeStyle=orthogonalEdgeStyle;rounded=0;orthogonalLoop=1;jettySize=auto;html=1;" edge="1" parent="WIyWlLk6GJQsqaUBKTNV-1" source="aSDHO9caTJVkEjK9U5SC-30" target="aSDHO9caTJVkEjK9U5SC-32">
          <mxGeometry relative="1" as="geometry" />
        </mxCell>
        <mxCell id="aSDHO9caTJVkEjK9U5SC-30" value="Determine future modifications that can improve Rover" style="rounded=0;whiteSpace=wrap;html=1;" vertex="1" parent="WIyWlLk6GJQsqaUBKTNV-1">
          <mxGeometry x="210" y="540" width="120" height="60" as="geometry" />
        </mxCell>
        <mxCell id="aSDHO9caTJVkEjK9U5SC-35" style="edgeStyle=orthogonalEdgeStyle;rounded=0;orthogonalLoop=1;jettySize=auto;html=1;entryX=0.5;entryY=0;entryDx=0;entryDy=0;" edge="1" parent="WIyWlLk6GJQsqaUBKTNV-1" source="aSDHO9caTJVkEjK9U5SC-32" target="aSDHO9caTJVkEjK9U5SC-33">
          <mxGeometry relative="1" as="geometry" />
        </mxCell>
        <mxCell id="aSDHO9caTJVkEjK9U5SC-32" value="Construct first draft of Rover&#39;s block diagram" style="rounded=0;whiteSpace=wrap;html=1;" vertex="1" parent="WIyWlLk6GJQsqaUBKTNV-1">
          <mxGeometry x="210" y="660" width="120" height="60" as="geometry" />
        </mxCell>
        <mxCell id="aSDHO9caTJVkEjK9U5SC-33" value="Confirm reliability of the functions and approve Rover&#39;s final Block Diagram" style="rounded=0;whiteSpace=wrap;html=1;" vertex="1" parent="WIyWlLk6GJQsqaUBKTNV-1">
          <mxGeometry x="210" y="780" width="120" height="60" as="geometry" />
        </mxCell>
        <mxCell id="aSDHO9caTJVkEjK9U5SC-53" style="edgeStyle=orthogonalEdgeStyle;rounded=0;orthogonalLoop=1;jettySize=auto;html=1;entryX=0.5;entryY=0;entryDx=0;entryDy=0;" edge="1" parent="WIyWlLk6GJQsqaUBKTNV-1" source="aSDHO9caTJVkEjK9U5SC-36" target="aSDHO9caTJVkEjK9U5SC-40">
          <mxGeometry relative="1" as="geometry" />
        </mxCell>
        <mxCell id="aSDHO9caTJVkEjK9U5SC-36" value="Research and come up with electric modules to operate the functions of the Rover" style="rounded=0;whiteSpace=wrap;html=1;" vertex="1" parent="WIyWlLk6GJQsqaUBKTNV-1">
          <mxGeometry x="375" y="290" width="130" height="70" as="geometry" />
        </mxCell>
        <mxCell id="aSDHO9caTJVkEjK9U5SC-55" style="edgeStyle=orthogonalEdgeStyle;rounded=0;orthogonalLoop=1;jettySize=auto;html=1;entryX=0.5;entryY=0;entryDx=0;entryDy=0;" edge="1" parent="WIyWlLk6GJQsqaUBKTNV-1" source="aSDHO9caTJVkEjK9U5SC-37" target="aSDHO9caTJVkEjK9U5SC-38">
          <mxGeometry relative="1" as="geometry" />
        </mxCell>
        <mxCell id="aSDHO9caTJVkEjK9U5SC-37" value="Form a list of the electrical components needed." style="rounded=0;whiteSpace=wrap;html=1;" vertex="1" parent="WIyWlLk6GJQsqaUBKTNV-1">
          <mxGeometry x="380" y="540" width="120" height="60" as="geometry" />
        </mxCell>
        <mxCell id="aSDHO9caTJVkEjK9U5SC-56" style="edgeStyle=orthogonalEdgeStyle;rounded=0;orthogonalLoop=1;jettySize=auto;html=1;entryX=0.5;entryY=0;entryDx=0;entryDy=0;" edge="1" parent="WIyWlLk6GJQsqaUBKTNV-1" source="aSDHO9caTJVkEjK9U5SC-38" target="aSDHO9caTJVkEjK9U5SC-39">
          <mxGeometry relative="1" as="geometry" />
        </mxCell>
        <mxCell id="aSDHO9caTJVkEjK9U5SC-38" value="Finalise the final circuit" style="rounded=0;whiteSpace=wrap;html=1;" vertex="1" parent="WIyWlLk6GJQsqaUBKTNV-1">
          <mxGeometry x="380" y="660" width="120" height="60" as="geometry" />
        </mxCell>
        <mxCell id="aSDHO9caTJVkEjK9U5SC-39" value="Run simulations to confirm the operation of the cirucit(s)" style="rounded=0;whiteSpace=wrap;html=1;" vertex="1" parent="WIyWlLk6GJQsqaUBKTNV-1">
          <mxGeometry x="380" y="780" width="120" height="60" as="geometry" />
        </mxCell>
        <mxCell id="aSDHO9caTJVkEjK9U5SC-54" style="edgeStyle=orthogonalEdgeStyle;rounded=0;orthogonalLoop=1;jettySize=auto;html=1;entryX=0.5;entryY=0;entryDx=0;entryDy=0;" edge="1" parent="WIyWlLk6GJQsqaUBKTNV-1" source="aSDHO9caTJVkEjK9U5SC-40" target="aSDHO9caTJVkEjK9U5SC-37">
          <mxGeometry relative="1" as="geometry" />
        </mxCell>
        <mxCell id="aSDHO9caTJVkEjK9U5SC-40" value="Use software LTSpice to construct drafts of the electrical circuit device, showing the different connections." style="rounded=0;whiteSpace=wrap;html=1;" vertex="1" parent="WIyWlLk6GJQsqaUBKTNV-1">
          <mxGeometry x="370" y="420" width="140" height="70" as="geometry" />
        </mxCell>
        <mxCell id="aSDHO9caTJVkEjK9U5SC-60" style="edgeStyle=orthogonalEdgeStyle;rounded=0;orthogonalLoop=1;jettySize=auto;html=1;entryX=0.5;entryY=0;entryDx=0;entryDy=0;" edge="1" parent="WIyWlLk6GJQsqaUBKTNV-1" source="aSDHO9caTJVkEjK9U5SC-41" target="aSDHO9caTJVkEjK9U5SC-44">
          <mxGeometry relative="1" as="geometry" />
        </mxCell>
        <mxCell id="aSDHO9caTJVkEjK9U5SC-41" value="Test the programs and record any areas of improvements" style="rounded=0;whiteSpace=wrap;html=1;" vertex="1" parent="WIyWlLk6GJQsqaUBKTNV-1">
          <mxGeometry x="570" y="540" width="120" height="60" as="geometry" />
        </mxCell>
        <mxCell id="aSDHO9caTJVkEjK9U5SC-59" style="edgeStyle=orthogonalEdgeStyle;rounded=0;orthogonalLoop=1;jettySize=auto;html=1;entryX=0.5;entryY=0;entryDx=0;entryDy=0;" edge="1" parent="WIyWlLk6GJQsqaUBKTNV-1" source="aSDHO9caTJVkEjK9U5SC-42" target="aSDHO9caTJVkEjK9U5SC-41">
          <mxGeometry relative="1" as="geometry" />
        </mxCell>
        <mxCell id="aSDHO9caTJVkEjK9U5SC-42" value="Consruct first draft of the functions required and store them on Github. Commits are regularly added" style="rounded=0;whiteSpace=wrap;html=1;" vertex="1" parent="WIyWlLk6GJQsqaUBKTNV-1">
          <mxGeometry x="565" y="415" width="130" height="80" as="geometry" />
        </mxCell>
        <mxCell id="aSDHO9caTJVkEjK9U5SC-58" style="edgeStyle=orthogonalEdgeStyle;rounded=0;orthogonalLoop=1;jettySize=auto;html=1;entryX=0.5;entryY=0;entryDx=0;entryDy=0;" edge="1" parent="WIyWlLk6GJQsqaUBKTNV-1" source="aSDHO9caTJVkEjK9U5SC-43" target="aSDHO9caTJVkEjK9U5SC-42">
          <mxGeometry relative="1" as="geometry">
            <mxPoint x="629.9999999999998" y="420" as="targetPoint" />
          </mxGeometry>
        </mxCell>
        <mxCell id="aSDHO9caTJVkEjK9U5SC-43" value="Discuss and confirm the functions we&#39;ll need and how we&#39;ll implement them." style="rounded=0;whiteSpace=wrap;html=1;" vertex="1" parent="WIyWlLk6GJQsqaUBKTNV-1">
          <mxGeometry x="570" y="300" width="120" height="60" as="geometry" />
        </mxCell>
        <mxCell id="aSDHO9caTJVkEjK9U5SC-61" style="edgeStyle=orthogonalEdgeStyle;rounded=0;orthogonalLoop=1;jettySize=auto;html=1;entryX=0.5;entryY=0;entryDx=0;entryDy=0;" edge="1" parent="WIyWlLk6GJQsqaUBKTNV-1" source="aSDHO9caTJVkEjK9U5SC-44" target="aSDHO9caTJVkEjK9U5SC-45">
          <mxGeometry relative="1" as="geometry" />
        </mxCell>
        <mxCell id="aSDHO9caTJVkEjK9U5SC-44" value="Use those areas of improvements to modify the software" style="rounded=0;whiteSpace=wrap;html=1;" vertex="1" parent="WIyWlLk6GJQsqaUBKTNV-1">
          <mxGeometry x="570" y="660" width="120" height="60" as="geometry" />
        </mxCell>
        <mxCell id="aSDHO9caTJVkEjK9U5SC-45" value="Finalise program and use library to deal with them. Upload to Module once done" style="rounded=0;whiteSpace=wrap;html=1;" vertex="1" parent="WIyWlLk6GJQsqaUBKTNV-1">
          <mxGeometry x="570" y="780" width="120" height="60" as="geometry" />
        </mxCell>
        <mxCell id="aSDHO9caTJVkEjK9U5SC-46" value="Put together documents and deliver final product" style="rounded=0;whiteSpace=wrap;html=1;" vertex="1" parent="WIyWlLk6GJQsqaUBKTNV-1">
          <mxGeometry x="760" y="780" width="120" height="60" as="geometry" />
        </mxCell>
        <mxCell id="aSDHO9caTJVkEjK9U5SC-67" style="edgeStyle=orthogonalEdgeStyle;rounded=0;orthogonalLoop=1;jettySize=auto;html=1;" edge="1" parent="WIyWlLk6GJQsqaUBKTNV-1" source="aSDHO9caTJVkEjK9U5SC-47" target="aSDHO9caTJVkEjK9U5SC-46">
          <mxGeometry relative="1" as="geometry" />
        </mxCell>
        <mxCell id="aSDHO9caTJVkEjK9U5SC-47" value="Compare the experimental outcomes to the theoretical equivalents" style="rounded=0;whiteSpace=wrap;html=1;" vertex="1" parent="WIyWlLk6GJQsqaUBKTNV-1">
          <mxGeometry x="750" y="660" width="140" height="60" as="geometry" />
        </mxCell>
        <mxCell id="aSDHO9caTJVkEjK9U5SC-65" style="edgeStyle=orthogonalEdgeStyle;rounded=0;orthogonalLoop=1;jettySize=auto;html=1;entryX=0.5;entryY=0;entryDx=0;entryDy=0;" edge="1" parent="WIyWlLk6GJQsqaUBKTNV-1" source="aSDHO9caTJVkEjK9U5SC-48" target="aSDHO9caTJVkEjK9U5SC-47">
          <mxGeometry relative="1" as="geometry" />
        </mxCell>
        <mxCell id="aSDHO9caTJVkEjK9U5SC-48" value="Perform several tests on final test to verify reliability of functions and structure" style="rounded=0;whiteSpace=wrap;html=1;" vertex="1" parent="WIyWlLk6GJQsqaUBKTNV-1">
          <mxGeometry x="760" y="540" width="120" height="60" as="geometry" />
        </mxCell>
        <mxCell id="aSDHO9caTJVkEjK9U5SC-64" style="edgeStyle=orthogonalEdgeStyle;rounded=0;orthogonalLoop=1;jettySize=auto;html=1;" edge="1" parent="WIyWlLk6GJQsqaUBKTNV-1" source="aSDHO9caTJVkEjK9U5SC-49" target="aSDHO9caTJVkEjK9U5SC-48">
          <mxGeometry relative="1" as="geometry" />
        </mxCell>
        <mxCell id="aSDHO9caTJVkEjK9U5SC-49" value="Acquire electrical components on the chassis and complete new connections on the breadboard." style="rounded=0;whiteSpace=wrap;html=1;" vertex="1" parent="WIyWlLk6GJQsqaUBKTNV-1">
          <mxGeometry x="760" y="420" width="120" height="70" as="geometry" />
        </mxCell>
        <mxCell id="aSDHO9caTJVkEjK9U5SC-63" style="edgeStyle=orthogonalEdgeStyle;rounded=0;orthogonalLoop=1;jettySize=auto;html=1;entryX=0.5;entryY=0;entryDx=0;entryDy=0;" edge="1" parent="WIyWlLk6GJQsqaUBKTNV-1" source="aSDHO9caTJVkEjK9U5SC-50" target="aSDHO9caTJVkEjK9U5SC-49">
          <mxGeometry relative="1" as="geometry" />
        </mxCell>
        <mxCell id="aSDHO9caTJVkEjK9U5SC-50" value="Utilise software to make changes to structure of EEbug chassis and place new connections on breadboard" style="rounded=0;whiteSpace=wrap;html=1;" vertex="1" parent="WIyWlLk6GJQsqaUBKTNV-1">
          <mxGeometry x="745" y="290" width="150" height="80" as="geometry" />
        </mxCell>
      </root>
    </mxGraphModel>
  </diagram>
</mxfile>
